<svg xmlns="http://www.w3.org/2000/svg" viewBox="0 0 100 100" width="100" height="100">
<defs></defs>
<path d="M19.56730769230769 68.0Q12.64423076923077 67.63942307692308 8.822115384615385 64.61057692307693Q5.0 61.581730769230774 5.0 55.52403846153847V43.19230769230769Q5.0 28.625 18.269230769230766 28.625Q25.769230769230766 28.625 29.302884615384613 34.17788461538462Q32.83653846153846 28.625 40.26442307692307 28.625Q53.10096153846153 28.625 53.10096153846153 42.831730769230774V54.29807692307693Q53.10096153846153 59.20192307692308 58.004807692307686 59.20192307692308H61.105769230769226Q66.08173076923076 59.20192307692308 66.08173076923076 54.29807692307693V43.19230769230769Q66.08173076923076 28.625 80.4326923076923 28.625Q94.99999999999999 28.625 94.99999999999999 42.831730769230774V68.0H85.55288461538461V42.75961538461539Q85.55288461538461 37.27884615384616 80.57692307692307 37.27884615384616Q75.52884615384615 37.27884615384616 75.52884615384615 42.97596153846154V54.15384615384615Q75.52884615384615 68.0 60.817307692307686 68.0H58.36538461538461Q43.65384615384615 68.0 43.65384615384615 54.15384615384615V42.75961538461539Q43.65384615384615 37.27884615384616 38.82211538461538 37.27884615384616Q33.918269230769226 37.27884615384616 33.918269230769226 42.97596153846154V68.0H24.54326923076923V42.75961538461539Q24.54326923076923 37.27884615384616 19.495192307692307 37.27884615384616Q14.447115384615383 37.27884615384616 14.447115384615383 42.97596153846154V55.16346153846154Q14.447115384615383 60.42788461538461 20.937499999999996 61.29326923076923Z" fill="#4B275F"/>
</svg>
